<?xml version="1.0" standalone="no"?>
<!DOCTYPE svg PUBLIC "-//W3C//DTD SVG 20010904//EN"
 "http://www.w3.org/TR/2001/REC-SVG-20010904/DTD/svg10.dtd">
<svg version="1.0" xmlns="http://www.w3.org/2000/svg"
 width="452.000000pt" height="452.000000pt" viewBox="0 0 452.000000 452.000000"
 preserveAspectRatio="xMidYMid meet">
<metadata>
Created by potrace 1.11, written by Peter Selinger 2001-2013
</metadata>
<g transform="translate(0.000000,452.000000) scale(0.100000,-0.100000)"
fill="#000000" stroke="none">
<path d="M1435 4281 c-3 -5 -2 -12 3 -15 5 -3 9 1 9 9 0 17 -3 19 -12 6z"/>
<path d="M1414 4263 c5 -10 -63 -13 -314 -13 -201 0 -328 -4 -340 -10 -33 -18
-39 -42 -42 -186 -2 -106 -6 -142 -17 -150 -11 -9 -12 -12 -1 -19 9 -5 11 -4
6 3 -4 7 -3 12 2 12 5 0 8 -35 8 -77 -1 -58 -5 -77 -15 -75 -7 1 -10 -2 -6 -8
3 -6 11 -8 16 -4 6 3 9 -23 8 -65 -1 -49 -5 -69 -13 -64 -8 5 -8 3 0 -8 13
-15 12 43 13 -1985 l1 -1291 25 -27 25 -27 962 4 c1043 4 988 1 1211 61 474
126 784 467 847 934 15 111 8 319 -15 411 -75 305 -301 561 -598 678 l-67 26
42 25 c319 188 498 542 459 911 -18 168 -59 304 -126 416 -19 31 -32 61 -29
66 3 5 1 8 -4 7 -5 -2 -30 23 -56 55 -130 159 -346 284 -589 342 -162 39 -261
46 -596 46 -234 0 -318 3 -330 12 -12 9 -13 9 -7 0 5 -10 -3 -13 -28 -13 -22
0 -36 5 -36 13 0 8 -3 9 -8 1 -7 -12 -75 -17 -68 -6 2 4 -9 7 -24 7 -16 1 -26
-3 -24 -7 3 -4 0 -8 -5 -8 -6 0 -11 5 -11 10 0 6 -5 10 -11 10 -5 0 -7 -4 -4
-10 3 -5 -12 -9 -40 -7 -25 1 -45 6 -45 12 0 5 -5 3 -10 -5 -6 -10 -10 -11
-10 -2 0 6 -5 12 -11 12 -5 0 -7 -4 -4 -10 4 -6 -5 -10 -20 -10 -14 0 -24 4
-21 8 2 4 -4 8 -14 8 -10 0 -16 -4 -14 -8 8 -13 -31 -9 -45 5 -11 9 -12 9 -7
0z m262 -754 c-5 7 3 11 19 11 17 0 24 -4 19 -12 -5 -7 -3 -8 7 -2 8 5 38 10
67 12 41 2 52 0 46 -10 -6 -10 -5 -10 7 -1 20 16 491 12 496 -4 2 -6 13 -9 23
-6 12 3 20 0 20 -6 0 -7 4 -10 8 -7 14 8 82 -16 75 -27 -3 -6 -1 -7 5 -3 15 9
54 -12 47 -24 -3 -6 0 -7 8 -4 18 6 102 -70 93 -85 -4 -6 0 -11 9 -11 19 0 70
-103 61 -125 -3 -8 -2 -15 3 -15 15 0 22 -124 11 -193 -13 -82 -38 -149 -53
-140 -5 3 -7 1 -3 -5 8 -14 -43 -74 -56 -65 -6 3 -8 1 -4 -5 3 -6 -8 -22 -26
-35 -31 -24 -117 -70 -128 -70 -3 0 -15 -3 -28 -8 -16 -6 -31 -4 -50 7 -25 15
-25 15 -8 0 11 -9 18 -16 15 -17 -2 0 -12 -2 -21 -4 -10 -2 -18 2 -18 8 0 7
-5 4 -11 -6 -7 -11 -21 -18 -37 -17 -15 1 -29 1 -32 0 -23 -8 -50 -8 -50 0 0
6 -5 10 -11 10 -5 0 -7 -6 -4 -12 4 -7 -3 -2 -16 12 -19 22 -21 22 -15 5 5
-16 1 -21 -14 -22 -11 -1 -20 3 -20 8 0 6 4 8 9 5 12 -8 7 22 -6 35 -7 7 -12
6 -16 -5 -4 -10 -1 -13 9 -9 14 5 14 3 3 -16 -8 -12 -15 -17 -17 -11 -2 5 -8
10 -13 10 -6 0 -8 -4 -5 -9 7 -10 -13 -9 -31 2 -6 4 -14 1 -17 -5 -3 -7 -3 -3
-1 9 3 12 1 24 -4 28 -7 4 -8 0 -4 -11 5 -14 3 -15 -14 -6 -22 12 -33 7 -29
-11 2 -7 1 -9 -1 -4 -3 4 -10 4 -16 0 -23 -14 -57 -10 -62 8 -3 9 -13 23 -22
31 -16 12 -15 11 0 -12 9 -13 17 -27 17 -30 0 -10 -124 -6 -139 4 -9 6 -12 5
-8 -1 4 -6 -4 -10 -19 -10 -17 0 -24 4 -20 13 3 7 0 16 -6 20 -6 4 -8 3 -5 -2
3 -6 2 -16 -3 -24 -8 -13 -13 -13 -31 -2 -11 8 -18 9 -14 3 3 -6 1 -11 -5 -11
-16 0 -13 689 3 709 9 12 9 13 0 7 -10 -5 -13 6 -13 44 0 38 3 49 13 44 9 -6
9 -4 1 7 -9 11 -12 62 -5 77 0 1 11 -2 22 -9 15 -8 19 -8 15 0z m334 -870 c0
-14 -17 -10 -23 5 -4 10 -1 13 9 9 7 -3 14 -9 14 -14z m494 -687 c44 -12 82
-26 85 -30 4 -4 13 -8 21 -10 33 -6 69 -25 64 -33 -3 -5 4 -9 14 -9 29 0 114
-81 145 -139 16 -28 34 -81 42 -118 16 -74 20 -177 7 -169 -4 2 -7 -12 -6 -32
1 -44 -12 -86 -25 -77 -5 3 -13 0 -17 -6 -4 -7 -3 -9 4 -5 6 3 13 2 17 -4 3
-6 -4 -11 -17 -11 -16 -1 -18 -3 -6 -6 16 -4 16 -6 2 -29 -9 -13 -13 -24 -10
-24 4 0 -1 -11 -10 -25 -9 -14 -21 -22 -27 -18 -7 4 -8 0 -3 -13 4 -10 4 -15
0 -12 -3 4 -15 -3 -25 -15 -10 -12 -18 -18 -19 -13 0 5 7 17 16 27 12 14 13
18 2 25 -7 4 -10 4 -6 -1 4 -4 1 -14 -7 -22 -8 -8 -15 -23 -15 -33 0 -10 -5
-22 -12 -26 -7 -4 -8 -3 -4 4 4 7 2 20 -4 29 -10 16 -10 16 -6 -2 8 -28 -5
-45 -36 -47 -15 -1 -24 -6 -22 -10 3 -5 11 -6 17 -2 7 3 3 -2 -7 -10 -16 -13
-22 -13 -35 -3 -9 8 -12 8 -8 1 6 -10 -13 -25 -35 -28 -3 -1 -10 -4 -14 -9
-11 -10 -26 -9 -19 2 3 5 0 13 -6 17 -7 4 -9 3 -6 -2 11 -18 -8 -31 -53 -39
-37 -6 -43 -5 -35 7 6 8 2 5 -9 -7 -18 -19 -29 -20 -411 -22 l-392 -3 1 50 c0
41 3 50 16 45 9 -3 7 1 -5 10 -17 14 -18 17 -5 25 9 6 10 10 3 10 -6 0 -11 9
-10 19 0 11 5 17 9 15 4 -3 8 0 8 5 0 6 -4 11 -8 11 -4 0 -8 25 -8 54 0 30 3
53 7 50 5 -2 6 -12 3 -22 -5 -14 -4 -14 4 -3 10 15 6 41 -7 41 -4 0 -8 7 -8
15 0 20 7 19 23 -2 13 -17 14 -17 8 0 -5 14 -2 16 12 11 11 -4 16 -4 12 0 -5
6 -22 11 -48 15 -3 1 -6 26 -6 55 0 30 3 53 7 50 5 -2 6 -12 3 -22 -5 -14 -4
-14 4 -3 10 14 6 41 -7 41 -10 0 -7 203 3 219 6 10 6 12 -2 7 -8 -5 -12 3 -12
26 0 25 3 29 10 18 6 -9 10 -10 10 -3 0 6 -4 14 -9 17 -9 6 -14 203 -5 218 4
6 158 8 398 6 365 -4 396 -6 470 -26z"/>
<path d="M2426 3442 c-3 -5 1 -9 9 -9 8 0 12 4 9 9 -3 4 -7 8 -9 8 -2 0 -6 -4
-9 -8z"/>
<path d="M1799 2688 c-6 -20 -6 -39 0 -42 4 -3 7 6 7 20 0 20 -4 32 -7 22z"/>
<path d="M2061 2674 c0 -11 3 -14 6 -6 3 7 2 16 -1 19 -3 4 -6 -2 -5 -13z"/>
<path d="M2215 2680 c-3 -5 -1 -10 4 -10 6 0 11 5 11 10 0 6 -2 10 -4 10 -3 0
-8 -4 -11 -10z"/>
<path d="M1951 2671 c-8 -5 -23 -7 -34 -5 -16 3 -18 1 -9 -8 7 -7 19 -13 28
-14 9 -1 13 0 10 3 -3 3 2 12 12 19 19 15 14 18 -7 5z"/>
<path d="M1846 2656 c10 -8 21 -12 24 -10 5 6 -21 24 -34 24 -6 0 -1 -6 10
-14z"/>
<path d="M2040 2661 c0 -6 4 -13 10 -16 6 -3 7 1 4 9 -7 18 -14 21 -14 7z"/>
<path d="M2192 2656 c7 -8 15 -12 17 -11 5 6 -10 25 -20 25 -5 0 -4 -6 3 -14z"/>
<path d="M2275 2660 c-16 -7 -17 -9 -3 -9 9 -1 20 4 23 9 7 11 7 11 -20 0z"/>
<path d="M1648 1568 c-7 -17 15 -19 29 -3 4 4 3 5 -4 2 -6 -4 -13 -2 -15 5 -3
8 -6 6 -10 -4z"/>
<path d="M1650 1530 c-9 -6 -10 -10 -3 -10 6 0 15 5 18 10 8 12 4 12 -15 0z"/>
<path d="M1640 1404 c0 -6 7 -19 16 -30 14 -18 14 -18 3 6 -14 31 -19 36 -19
24z"/>
<path d="M2824 1358 l-19 -23 23 19 c21 18 27 26 19 26 -2 0 -12 -10 -23 -22z"/>
<path d="M1673 1283 c4 -3 1 -13 -6 -22 -11 -14 -10 -14 6 -2 20 15 22 31 5
31 -6 0 -8 -3 -5 -7z"/>
<path d="M2805 1280 c-3 -5 -2 -10 4 -10 5 0 13 5 16 10 3 6 2 10 -4 10 -5 0
-13 -4 -16 -10z"/>
<path d="M2789 1257 c11 -14 11 -18 -3 -23 -20 -8 -21 -21 -1 -21 8 0 13 3 10
5 -3 3 2 10 10 16 13 9 12 13 -7 25 -21 13 -22 13 -9 -2z"/>
<path d="M1640 1245 c0 -5 5 -17 10 -25 5 -8 10 -10 10 -5 0 6 -5 17 -10 25
-5 8 -10 11 -10 5z"/>
<path d="M2746 1238 c3 -5 10 -6 15 -3 13 9 11 12 -6 12 -8 0 -12 -4 -9 -9z"/>
<path d="M1666 1202 c-3 -5 1 -9 9 -9 8 0 15 4 15 9 0 4 -4 8 -9 8 -6 0 -12
-4 -15 -8z"/>
<path d="M1652 1161 c-11 -7 -10 -9 3 -14 9 -4 14 -3 10 2 -3 5 1 12 7 14 7 3
9 6 3 6 -5 0 -16 -3 -23 -8z"/>
<path d="M2671 1147 c-8 -10 -7 -14 2 -14 8 0 14 6 14 14 0 7 -1 13 -2 13 -2
0 -8 -6 -14 -13z"/>
<path d="M1666 1118 c3 -5 10 -6 15 -3 13 9 11 12 -6 12 -8 0 -12 -4 -9 -9z"/>
<path d="M1673 1085 c0 -8 4 -12 9 -9 5 3 6 10 3 15 -9 13 -12 11 -12 -6z"/>
<path d="M1646 1043 c-4 -9 -3 -20 1 -24 4 -4 9 3 9 17 2 28 -1 31 -10 7z"/>
</g>
</svg>
